<?xml version="1.0" standalone="no"?>
<!DOCTYPE svg PUBLIC "-//W3C//DTD SVG 20010904//EN"
 "http://www.w3.org/TR/2001/REC-SVG-20010904/DTD/svg10.dtd">
<svg version="1.0" xmlns="http://www.w3.org/2000/svg"
 width="1247.000000pt" height="1353.000000pt" viewBox="0 0 1247.000000 1353.000000"
 preserveAspectRatio="xMidYMid meet">

<g transform="translate(0.000000,1353.000000) scale(0.100000,-0.100000)"
fill="#000000" stroke="none">
<path d="M5780 13513 c-326 -23 -391 -30 -670 -74 -497 -79 -1019 -236 -1494
-450 -443 -200 -913 -490 -1294 -801 -526 -428 -985 -943 -1330 -1493 -501
-798 -813 -1676 -926 -2605 -34 -279 -41 -413 -41 -780 0 -362 12 -572 45
-795 32 -220 45 -297 72 -430 94 -480 222 -882 424 -1338 396 -892 989 -1663
1765 -2294 334 -271 679 -493 1077 -692 239 -120 271 -134 492 -220 657 -256
1227 -376 1912 -403 403 -16 808 3 1133 53 285 44 532 98 755 164 25 7 77 22
115 34 274 79 635 226 965 395 368 187 812 477 1031 673 37 32 100 84 141 116
109 83 631 603 735 732 340 419 515 687 752 1155 322 634 532 1308 625 2005
30 228 36 286 47 500 28 529 -14 1132 -112 1595 -17 80 -35 168 -41 195 -31
158 -162 591 -235 780 -19 50 -44 115 -56 145 -44 116 -172 393 -261 565 -89
173 -122 229 -268 465 -125 203 -323 469 -511 690 -130 152 -503 529 -637 644
-63 54 -140 119 -170 145 -49 42 -97 79 -305 232 -81 60 -381 250 -505 321
-178 102 -528 269 -713 342 -635 251 -1172 373 -1851 421 -184 13 -537 18
-666 8z m810 -123 c315 -29 439 -49 730 -112 961 -209 1877 -674 2620 -1328
41 -36 97 -84 125 -105 89 -71 344 -336 411 -426 10 -15 64 -80 120 -145 612
-723 1063 -1643 1273 -2597 158 -714 189 -1424 97 -2162 -136 -1092 -596
-2179 -1283 -3035 -222 -278 -381 -461 -458 -529 -22 -20 -76 -70 -120 -112
-44 -42 -99 -92 -122 -110 -23 -19 -114 -93 -202 -166 -422 -349 -802 -582
-1384 -852 -37 -17 -72 -31 -76 -31 -5 0 -35 -12 -67 -26 -211 -94 -711 -246
-1004 -305 -205 -42 -474 -82 -672 -101 -174 -17 -860 -17 -1023 0 -242 25
-573 77 -740 116 -33 8 -100 24 -150 36 -141 34 -411 116 -573 174 -202 74
-236 88 -402 163 -508 233 -912 481 -1304 802 -71 58 -166 135 -210 170 -45
36 -88 74 -96 85 -8 12 -89 95 -180 186 -220 219 -500 551 -637 755 -26 39
-70 102 -98 140 -27 39 -76 113 -108 165 -32 52 -62 102 -68 110 -129 209
-337 637 -446 920 -83 214 -219 640 -246 770 -3 14 -16 75 -30 135 -52 228
-102 574 -128 880 -15 174 -15 729 0 930 43 592 175 1186 389 1756 142 377
384 850 610 1189 240 359 459 627 752 920 238 238 257 256 496 456 339 283
824 582 1289 794 311 141 740 289 1015 349 30 7 92 21 137 32 45 11 159 33
253 49 152 26 243 38 535 69 44 5 235 9 425 10 274 1 388 -3 550 -19z"/>
<path d="M2895 11803 c-152 -46 -524 -261 -622 -359 l-63 -62 0 -70 c0 -41 6
-82 14 -99 8 -15 60 -120 115 -233 120 -243 185 -335 308 -437 81 -68 90 -73
135 -73 38 0 54 6 79 28 39 35 43 58 58 352 7 118 16 244 22 280 6 36 14 108
19 160 5 52 13 111 19 130 6 19 11 52 11 73 0 47 24 107 43 107 20 0 39 -24
104 -135 86 -147 132 -247 153 -333 4 -18 12 -38 18 -45 5 -7 12 -28 14 -47 3
-19 10 -55 16 -80 17 -71 33 -283 22 -294 -7 -7 -22 -6 -43 2 -53 19 -86 14
-128 -19 -46 -36 -70 -88 -89 -186 -11 -64 -11 -76 4 -115 28 -69 51 -88 109
-88 33 0 61 7 83 21 19 11 38 18 44 14 15 -9 12 -66 -5 -95 -8 -14 -14 -35
-15 -47 0 -12 -6 -34 -14 -50 -58 -122 -84 -165 -128 -213 -72 -80 -189 -199
-213 -218 -24 -20 -218 -249 -258 -307 -132 -185 -166 -266 -134 -310 15 -19
17 -19 62 -3 53 20 92 10 80 -20 -4 -9 -12 -30 -17 -47 -5 -16 -16 -44 -24
-62 -8 -17 -14 -37 -14 -45 0 -7 -7 -31 -15 -53 -32 -88 -11 -155 49 -155 22
0 40 -8 56 -25 25 -27 24 -38 -16 -148 -9 -24 -14 -80 -14 -159 0 -104 3 -125
20 -154 26 -41 52 -50 101 -34 35 12 41 11 59 -5 11 -10 30 -39 42 -64 50
-105 137 -206 228 -265 96 -62 138 -78 216 -79 63 -2 69 0 69 18 0 13 -12 26
-34 37 -19 9 -39 22 -44 27 -6 6 -16 11 -23 11 -21 0 -130 78 -171 122 -21 24
-49 66 -62 93 -56 120 -92 191 -104 206 -20 26 -93 59 -132 59 -46 0 -52 17
-31 82 9 28 16 69 16 92 1 22 7 52 15 66 8 14 14 36 15 49 0 13 8 45 17 70 9
26 14 55 10 64 -10 26 -49 46 -107 54 -39 6 -56 13 -58 25 -2 9 29 84 69 165
39 81 79 164 87 183 8 19 22 48 29 63 9 17 12 39 8 54 -6 24 -9 25 -54 19 -91
-12 -81 6 164 276 192 211 297 334 310 363 8 17 19 37 24 45 28 47 61 146 86
260 9 41 21 93 27 115 6 22 12 157 15 301 4 218 2 271 -11 323 -9 35 -16 72
-16 84 0 12 -7 35 -15 51 -8 15 -15 34 -15 42 0 33 -101 247 -157 332 -57 87
-259 289 -311 312 -52 23 -43 23 -107 3z m-80 -233 c6 -10 -16 -140 -50 -296
-12 -52 -16 -141 -18 -342 -2 -265 -3 -273 -22 -270 -37 6 -191 227 -256 368
-37 81 -49 112 -49 128 0 10 -6 26 -14 37 -7 11 -17 44 -21 73 -7 52 -6 54 30
87 44 42 102 82 173 121 87 47 93 51 105 63 6 6 19 11 28 11 9 0 22 7 29 15
14 17 56 20 65 5z"/>
<path d="M4602 11782 c-21 -14 -26 -75 -8 -110 9 -17 16 -40 16 -51 0 -11 7
-37 16 -58 9 -21 22 -51 29 -68 7 -16 27 -63 44 -104 17 -40 31 -81 31 -90 0
-9 6 -25 13 -36 12 -19 19 -41 61 -184 9 -29 16 -67 16 -85 0 -17 7 -80 15
-141 8 -60 15 -171 15 -246 l0 -137 35 -31 c20 -17 40 -31 45 -31 5 0 46 28
92 63 88 66 189 178 241 267 18 30 37 64 44 75 7 11 17 30 23 43 31 69 64 140
76 164 8 14 14 37 14 51 0 13 7 41 15 60 32 78 12 136 -93 268 -75 94 -212
207 -282 235 -8 3 -22 9 -30 14 -15 9 -75 38 -135 65 -16 7 -41 16 -55 19 -14
2 -56 14 -95 26 -92 27 -127 33 -143 22z m283 -211 c3 -6 29 -21 58 -35 80
-38 210 -147 255 -213 44 -66 62 -111 62 -160 0 -38 -19 -123 -31 -138 -4 -6
-14 -30 -22 -53 -16 -45 -155 -262 -168 -262 -21 0 -30 51 -35 192 -5 155 -17
229 -63 403 -4 17 -29 74 -54 126 -45 92 -55 128 -40 142 9 10 31 8 38 -2z"/>
<path d="M4363 11553 c-60 -73 -106 -167 -148 -303 -14 -47 -32 -105 -40 -130
-8 -25 -15 -56 -15 -68 0 -13 -6 -47 -14 -75 -29 -108 -61 -445 -60 -642 1
-224 12 -309 56 -440 5 -16 14 -45 18 -64 5 -18 13 -38 19 -44 6 -6 11 -16 11
-23 0 -43 163 -279 245 -354 48 -44 117 -140 113 -158 -2 -10 -21 -23 -48 -32
-70 -24 -70 -23 -70 -113 0 -85 12 -130 56 -225 14 -29 24 -60 22 -69 -2 -10
-29 -22 -76 -34 -79 -20 -136 -49 -146 -75 -3 -9 -6 -46 -6 -84 0 -53 6 -80
25 -118 14 -28 25 -59 25 -71 0 -12 -36 -61 -87 -116 -79 -88 -122 -144 -138
-185 -4 -8 -13 -27 -21 -42 -8 -14 -14 -38 -14 -52 0 -26 -14 -63 -59 -155
-78 -163 -167 -214 -392 -230 -85 -6 -119 -19 -119 -47 0 -14 84 -74 105 -74
7 0 40 -6 72 -14 32 -8 71 -17 87 -21 26 -5 28 -8 22 -43 -14 -86 -30 -326
-30 -447 0 -135 20 -493 29 -516 3 -8 9 -79 14 -159 11 -160 26 -306 42 -390
6 -30 15 -93 20 -140 4 -47 13 -101 19 -120 5 -19 10 -51 10 -71 0 -20 8 -56
17 -80 14 -38 16 -91 17 -369 0 -335 -3 -378 -49 -580 -8 -36 -15 -79 -15 -97
0 -17 -5 -44 -11 -60 -6 -15 -15 -55 -19 -88 -9 -73 -27 -162 -46 -232 -33
-121 -48 -170 -61 -200 -7 -18 -20 -47 -28 -65 -41 -98 -106 -222 -148 -285
-26 -40 -47 -81 -47 -92 0 -21 53 -71 76 -71 30 0 94 51 150 120 56 68 147
217 164 270 5 14 18 50 30 80 12 30 25 69 29 85 4 17 13 40 19 52 7 12 12 35
12 52 0 16 5 42 12 58 6 15 14 55 18 88 13 115 31 240 45 321 8 45 15 104 15
131 0 27 7 94 15 149 17 114 20 576 4 659 -5 28 -14 91 -19 140 -5 50 -14 106
-20 125 -5 19 -10 64 -10 100 0 36 -7 96 -15 135 -8 38 -15 95 -15 127 0 31
-7 92 -15 135 -8 43 -15 112 -15 153 0 41 -7 116 -15 165 -10 67 -15 192 -16
475 -1 340 0 390 15 430 12 32 16 67 14 120 l-3 75 47 25 c27 15 62 39 79 56
41 38 81 124 90 194 14 109 30 185 45 208 18 27 47 28 71 4 42 -43 429 -341
458 -353 6 -2 49 -30 96 -61 47 -31 105 -67 128 -80 45 -25 52 -29 123 -70 26
-16 55 -28 66 -28 11 0 25 -7 32 -15 7 -8 21 -15 30 -15 10 0 31 -6 47 -14 69
-35 150 -64 208 -76 72 -15 129 -32 157 -46 14 -8 34 -14 43 -14 9 0 58 -13
108 -30 315 -103 394 -120 559 -121 162 -1 424 -14 613 -31 235 -21 488 -12
620 21 115 30 260 69 300 83 17 5 46 13 65 17 19 4 45 13 57 19 12 7 35 12 52
12 16 0 42 5 58 11 15 7 48 15 73 19 59 11 114 32 140 55 28 25 28 100 1 115
-27 14 -157 13 -184 -2 -12 -6 -38 -15 -57 -19 -33 -7 -53 -13 -132 -40 -18
-6 -49 -14 -68 -17 -19 -2 -44 -11 -55 -18 -11 -8 -32 -14 -48 -14 -15 0 -44
-7 -64 -15 -19 -8 -50 -15 -67 -15 -18 0 -41 -7 -52 -15 -10 -8 -32 -15 -49
-15 -16 0 -65 -7 -108 -15 -101 -19 -245 -19 -422 0 -77 8 -261 19 -410 25
-383 16 -482 27 -557 66 -14 8 -37 14 -51 14 -13 0 -30 7 -37 15 -7 8 -27 15
-44 15 -17 1 -42 7 -56 15 -14 8 -43 15 -65 15 -22 0 -51 7 -65 15 -14 8 -42
14 -63 15 -21 0 -48 5 -60 12 -12 6 -40 15 -62 19 -67 12 -121 35 -365 156
-278 138 -316 160 -480 277 -199 142 -330 255 -330 284 0 8 23 34 50 59 54 48
61 73 36 121 -20 39 -27 101 -18 152 7 39 12 47 47 64 22 11 66 23 98 27 64 8
107 37 107 73 0 18 -45 128 -86 209 -8 16 -14 44 -14 62 0 41 21 55 83 55 57
0 82 24 72 72 -7 31 -55 109 -130 208 -56 74 -195 279 -206 303 -5 12 -19 38
-30 57 -47 78 -114 220 -122 260 -3 14 -10 39 -15 55 -11 32 -30 118 -39 176
-6 47 16 68 58 52 67 -26 155 38 180 131 13 46 6 185 -11 215 -23 45 -39 51
-122 51 l-80 0 5 58 c7 78 26 179 43 227 8 23 14 59 14 82 0 22 7 54 15 69 8
16 15 39 15 51 0 12 5 34 11 50 6 15 15 44 19 63 9 38 25 86 46 138 8 18 14
46 14 62 0 16 5 41 10 55 11 30 -2 65 -24 65 -8 0 -32 -21 -53 -47z"/>
<path d="M8043 9845 c-20 -8 -33 -21 -33 -32 0 -10 27 -54 60 -98 33 -44 67
-93 75 -110 9 -16 24 -43 35 -60 28 -44 150 -292 150 -304 0 -6 13 -39 28 -73
35 -77 51 -121 63 -173 6 -21 15 -46 22 -54 17 -20 15 -740 -2 -796 -13 -41
-31 -189 -34 -284 -2 -43 2 -56 16 -65 16 -9 24 -5 52 27 18 21 35 50 38 65 3
15 16 61 30 102 39 119 57 185 57 206 0 11 4 24 10 30 5 5 14 43 19 84 33 239
34 258 21 332 -6 40 -15 96 -19 123 -9 58 -28 133 -47 190 -8 23 -14 48 -14
57 0 10 -7 32 -15 50 -8 18 -30 76 -50 128 -40 104 -123 274 -155 319 -25 36
-25 51 -1 51 27 0 175 -160 246 -265 68 -101 93 -145 131 -225 14 -30 32 -67
40 -82 8 -14 14 -39 14 -55 1 -15 7 -39 15 -53 8 -14 14 -42 15 -63 0 -21 6
-66 14 -100 22 -94 40 -342 32 -443 -4 -49 -11 -165 -15 -259 -12 -236 -30
-442 -42 -490 -6 -22 -14 -58 -19 -80 -14 -63 -37 -142 -49 -164 -6 -11 -11
-32 -11 -46 0 -14 -5 -36 -12 -48 -6 -12 -15 -35 -19 -52 -8 -34 -26 -86 -46
-132 -7 -17 -13 -37 -13 -45 0 -8 -4 -18 -9 -24 -5 -5 -18 -46 -30 -91 -18
-70 -21 -112 -21 -280 0 -109 5 -225 11 -258 6 -33 14 -80 18 -105 4 -25 13
-55 19 -67 7 -12 12 -31 12 -42 0 -55 128 -225 330 -436 154 -162 305 -353
371 -470 10 -16 38 -73 64 -125 26 -52 53 -108 61 -123 8 -16 14 -37 14 -47 0
-9 7 -23 15 -30 8 -7 15 -18 15 -25 0 -7 14 -46 31 -86 17 -41 37 -90 44 -109
7 -19 27 -69 43 -110 39 -97 78 -221 107 -345 23 -100 41 -173 55 -225 6 -25
15 -63 19 -85 4 -22 12 -56 19 -75 10 -32 26 -98 38 -160 8 -40 -40 -71 -154
-100 -18 -4 -38 -12 -45 -17 -42 -32 -239 -60 -488 -70 -174 -7 -210 -18 -269
-86 -43 -50 -35 -67 32 -68 29 0 123 -4 208 -8 195 -9 467 3 516 24 20 8 48
15 63 15 15 0 35 6 46 14 11 7 31 16 45 19 94 20 255 95 295 137 28 30 30 35
28 108 -1 42 -8 93 -16 112 -25 62 -39 104 -46 140 -4 19 -13 45 -19 57 -7 12
-12 32 -12 45 0 13 -6 43 -14 68 -8 25 -22 72 -31 105 -9 33 -23 78 -30 100
-7 22 -27 87 -45 145 -17 58 -38 117 -46 132 -8 14 -14 34 -14 45 0 10 -7 31
-15 47 -8 15 -15 36 -15 45 0 10 -7 26 -15 37 -8 10 -15 27 -15 36 0 9 -6 29
-14 45 -8 15 -31 69 -52 118 -77 189 -138 314 -185 379 -16 22 -29 44 -29 49
0 18 -202 251 -345 397 -174 177 -263 280 -286 330 -35 75 -49 112 -49 133 0
12 -6 39 -14 62 -38 105 -38 534 -1 662 9 29 23 79 31 110 9 32 21 67 27 78 6
11 14 38 18 60 10 51 27 118 45 176 8 26 14 69 14 95 0 27 7 105 15 174 22
187 22 1059 -1 1185 -17 97 -37 172 -58 220 -18 40 -115 235 -129 260 -140
236 -372 454 -599 564 -82 39 -106 44 -145 26z"/>
<path d="M3640 9714 c-102 -18 -149 -41 -182 -92 -27 -41 -22 -58 28 -112 70
-75 113 -94 210 -94 91 0 123 14 184 81 42 46 60 76 60 102 0 28 -63 86 -107
99 -45 13 -157 22 -193 16z"/>
<path d="M4257 5523 c-11 -10 -8 -115 4 -153 28 -87 41 -343 46 -861 4 -456 2
-534 -11 -586 -9 -34 -16 -74 -16 -91 0 -16 -7 -46 -15 -65 -8 -20 -15 -47
-15 -61 0 -13 -6 -37 -14 -53 -8 -15 -22 -48 -31 -73 -10 -25 -24 -63 -33 -85
-9 -22 -49 -90 -89 -150 -62 -94 -73 -117 -73 -153 0 -61 43 -97 170 -141 32
-12 101 -36 190 -66 71 -25 376 -89 500 -106 93 -12 192 -30 252 -45 32 -8 77
-14 102 -14 24 0 61 -7 82 -16 31 -13 77 -17 214 -18 175 -1 175 -1 233 29
102 51 142 120 97 165 -24 24 -85 27 -97 5 -14 -25 -91 -45 -172 -45 -42 0
-148 9 -236 20 -154 18 -198 25 -330 51 -33 6 -85 15 -115 19 -30 4 -75 12
-100 18 -25 6 -67 16 -95 23 -27 6 -70 15 -95 18 -25 4 -55 13 -67 19 -12 7
-34 12 -50 12 -15 1 -39 7 -53 15 -14 8 -38 15 -55 15 -16 0 -39 7 -49 15 -11
8 -28 15 -39 15 -24 0 -75 30 -82 48 -3 8 2 27 12 41 10 14 22 34 28 43 5 9
27 45 48 78 20 34 37 67 37 74 0 8 7 19 15 26 8 7 15 18 15 25 0 8 6 26 14 42
27 54 46 104 46 119 0 9 7 39 16 68 33 105 37 122 46 186 29 226 34 866 8
1025 -5 33 -10 83 -10 110 0 50 -29 205 -52 275 -20 63 -70 132 -117 161 -48
31 -54 33 -64 22z"/>
<path d="M4931 5376 c-10 -11 -9 -24 3 -58 14 -42 70 -175 105 -253 11 -22 33
-70 50 -108 17 -37 31 -73 31 -80 0 -6 7 -21 15 -31 8 -11 15 -28 15 -37 0
-10 6 -30 14 -46 33 -66 93 -230 105 -286 5 -21 14 -44 20 -50 6 -6 11 -21 11
-34 0 -12 6 -37 14 -55 7 -18 21 -60 30 -93 10 -33 22 -73 27 -90 20 -58 39
-131 50 -185 6 -30 15 -59 20 -65 5 -5 9 -24 9 -42 0 -19 7 -50 15 -70 8 -19
15 -52 15 -72 0 -20 7 -74 15 -121 28 -160 11 -400 -32 -451 -32 -38 -7 -59
95 -74 74 -12 111 27 143 147 23 90 25 245 4 355 -8 43 -15 98 -15 123 0 25
-7 72 -15 103 -8 32 -15 71 -15 88 0 16 -7 46 -15 66 -8 19 -15 46 -15 59 0
13 -6 38 -14 56 -8 18 -22 60 -31 93 -10 33 -22 71 -27 85 -6 14 -21 59 -35
100 -13 41 -28 79 -34 85 -5 5 -9 19 -9 31 0 12 -6 35 -14 51 -8 15 -22 48
-31 73 -10 25 -23 57 -31 72 -8 14 -14 31 -14 37 0 6 -13 40 -30 74 -16 35
-30 70 -30 78 0 8 -4 19 -9 25 -5 5 -19 34 -31 64 -30 75 -109 231 -126 251
-8 8 -14 19 -14 22 0 4 -18 32 -39 64 -63 89 -149 137 -180 99z"/>
</g>
</svg>
